<?xml version="1.0" standalone="no"?>
<!DOCTYPE svg PUBLIC "-//W3C//DTD SVG 20010904//EN"
 "http://www.w3.org/TR/2001/REC-SVG-20010904/DTD/svg10.dtd">
<svg version="1.0" xmlns="http://www.w3.org/2000/svg"
 width="360.000000pt" height="360.000000pt" viewBox="0 0 360.000000 360.000000"
 preserveAspectRatio="xMidYMid meet">
<metadata>
Created by potrace 1.11, written by Peter Selinger 2001-2013
</metadata>
<g transform="translate(0.000000,360.000000) scale(0.100000,-0.100000)"
fill="#000000" stroke="none">
<path d="M1438 3585 c-2 -1 -59 -6 -127 -10 -69 -4 -133 -8 -142 -10 -10 -2
-46 -6 -81 -10 -63 -6 -80 -8 -153 -20 -118 -18 -172 -29 -297 -60 -242 -60
-426 -144 -521 -238 -81 -79 -80 -74 -77 -467 1 -190 2 -367 2 -395 0 -27 0
-207 0 -400 0 -192 0 -370 0 -395 0 -25 -1 -200 -2 -390 -2 -335 -2 -346 19
-390 20 -42 74 -110 86 -110 3 0 15 -9 27 -20 12 -11 28 -20 35 -20 7 0 13 -4
13 -9 0 -5 9 -11 20 -14 13 -3 18 -11 14 -20 -3 -8 -1 -18 5 -22 7 -3 8 0 5 9
-8 21 3 20 57 -4 65 -30 74 -36 74 -48 0 -6 7 -17 15 -24 12 -11 12 -11 2 4
-22 29 3 29 89 0 94 -32 253 -72 285 -72 11 0 24 -3 28 -7 3 -4 14 -8 24 -8
23 -3 107 -14 167 -23 32 -5 49 -13 47 -21 -1 -7 2 -10 8 -6 6 3 8 11 5 16 -4
5 -2 9 4 9 5 0 12 -4 15 -8 3 -5 18 -8 33 -7 15 1 36 -2 45 -7 11 -5 18 -5 18
1 0 6 7 8 15 4 9 -3 35 -7 58 -8 23 -1 44 -3 47 -5 3 -1 27 -1 54 0 36 1 46
-2 41 -11 -6 -8 -4 -10 6 -4 21 13 351 6 368 -8 11 -9 13 -9 8 0 -4 6 -3 14 3
18 5 3 10 1 10 -5 0 -6 5 -8 10 -5 6 3 10 2 10 -3 0 -5 22 -8 50 -7 30 2 47
-1 44 -7 -4 -6 3 -5 14 1 15 8 22 8 25 -2 4 -9 6 -9 6 1 1 6 6 12 12 12 5 0 7
-5 3 -12 -5 -7 -3 -8 7 -2 21 13 51 16 44 4 -3 -5 -1 -10 4 -10 6 0 11 4 11 8
0 12 63 9 72 -3 5 -7 8 -7 8 0 0 6 15 11 34 11 32 1 34 -1 29 -25 -2 -14 -1
-23 2 -19 4 3 8 14 9 25 2 13 12 18 37 18 19 0 37 -4 41 -10 5 -6 8 -5 8 3 0
6 5 12 11 12 5 0 7 -6 3 -12 -6 -10 -4 -10 7 0 17 16 32 16 23 0 -6 -10 -4
-10 8 0 13 10 17 10 21 0 4 -10 6 -10 6 0 1 6 6 12 12 12 5 0 7 -5 3 -11 -4
-8 -1 -8 12 -1 28 15 36 15 45 0 7 -10 9 -10 9 0 0 6 5 12 11 12 5 0 7 -6 3
-12 -6 -10 -4 -10 7 0 17 16 32 16 23 -1 -6 -9 -4 -9 8 1 13 10 17 10 21 0 4
-10 6 -10 6 0 1 6 6 12 12 12 5 0 7 -6 3 -12 -6 -10 -4 -10 7 0 21 20 25 15
27 -35 3 -55 35 -93 78 -93 18 0 23 -4 18 -13 -6 -9 -4 -9 7 -1 16 13 68 12
88 -1 10 -5 12 -4 7 3 -4 7 -1 12 8 12 10 0 13 -6 10 -18 -5 -14 -4 -15 5 -2
8 13 33 16 143 15 73 0 139 -4 147 -9 10 -6 12 -5 7 2 -4 7 -1 12 8 12 10 0
13 -6 10 -17 -5 -15 -4 -15 4 -4 6 8 17 16 25 17 11 1 14 -16 15 -80 2 -76 4
-83 31 -107 l29 -27 181 1 c99 0 179 3 176 5 -2 3 3 15 13 27 16 20 17 52 17
334 -1 306 -1 312 -23 333 -14 14 -39 24 -69 28 l-48 5 0 73 c0 55 4 76 15 84
12 8 12 9 -2 4 -10 -3 -18 -1 -18 4 0 6 6 10 13 10 7 0 8 3 2 8 -6 4 -11 68
-13 145 -1 76 -7 147 -12 158 -12 22 -46 32 -107 33 -24 1 -43 4 -43 9 0 4 3
7 8 7 4 0 13 10 21 23 13 20 13 21 -2 8 -25 -20 -21 -2 6 28 12 14 18 23 13
19 -5 -4 -15 -3 -22 3 -10 8 -11 16 -3 31 8 16 8 23 -2 29 -21 13 -30 11 -27
-7 2 -10 -2 -19 -8 -21 -12 -4 -11 37 1 56 3 6 2 11 -4 11 -12 0 -8 28 7 40 7
6 10 7 7 4 -3 -4 0 -13 6 -21 6 -7 7 -13 2 -13 -5 0 -10 -7 -10 -15 0 -8 2
-13 5 -10 3 2 13 0 23 -6 15 -7 17 -6 13 6 -3 8 -10 12 -15 9 -13 -8 -11 10 4
25 6 7 8 12 2 11 -24 -5 -27 1 -9 15 18 14 17 15 -12 10 -22 -3 -31 -1 -31 10
0 8 4 12 9 9 4 -3 8 -1 8 5 0 5 -5 11 -10 13 -18 6 -21 58 -6 89 8 16 10 27 5
24 -5 -4 -9 -1 -9 4 0 6 6 11 13 11 7 0 8 3 2 8 -13 9 -14 55 0 64 7 5 7 8 -1
8 -12 0 -12 89 1 109 5 9 4 12 -3 7 -8 -5 -11 61 -12 231 -1 131 -2 254 -2
273 0 19 1 196 2 392 2 412 3 409 -93 493 -113 100 -413 215 -672 258 -204 35
-318 50 -475 63 -74 6 -566 14 -572 9z m1853 -2203 c-4 -9 -6 -23 -4 -29 3 -7
0 -13 -6 -13 -6 0 -11 5 -11 11 0 5 -6 7 -12 3 -7 -4 -3 4 10 18 12 13 19 28
15 33 -5 4 -2 5 5 1 8 -5 9 -13 3 -24z m8 -58 c-6 -8 -16 -11 -21 -8 -6 4 -6
0 0 -12 7 -14 6 -24 -3 -37 -18 -25 -23 -11 -16 53 0 9 12 16 26 16 21 2 24
-1 14 -12z"/>
<path d="M3290 1739 c0 -5 5 -7 10 -4 6 3 10 8 10 11 0 2 -4 4 -10 4 -5 0 -10
-5 -10 -11z"/>
<path d="M3315 1379 c-4 -6 -5 -12 -2 -15 2 -3 7 2 10 11 7 17 1 20 -8 4z"/>
<path d="M3450 1125 c0 -5 5 -17 10 -25 5 -8 10 -10 10 -5 0 6 -5 17 -10 25
-5 8 -10 11 -10 5z"/>
<path d="M3456 1053 c-6 -14 -5 -15 5 -6 7 7 10 15 7 18 -3 3 -9 -2 -12 -12z"/>
<path d="M3460 1006 c0 -2 8 -10 18 -17 15 -13 16 -12 3 4 -13 16 -21 21 -21
13z"/>
<path d="M3456 753 c-6 -14 -5 -15 5 -6 7 7 10 15 7 18 -3 3 -9 -2 -12 -12z"/>
<path d="M150 656 c0 -2 8 -10 18 -17 15 -13 16 -12 3 4 -13 16 -21 21 -21 13z"/>
<path d="M355 551 c-3 -5 -2 -12 3 -15 5 -3 9 1 9 9 0 17 -3 19 -12 6z"/>
<path d="M633 454 c0 -9 4 -11 12 -4 7 5 14 9 16 7 2 -1 3 0 1 2 -7 11 -29 7
-29 -5z"/>
<path d="M585 440 c-3 -6 1 -7 9 -4 18 7 21 14 7 14 -6 0 -13 -4 -16 -10z"/>
<path d="M823 402 c10 -10 14 -22 10 -27 -5 -4 -2 -5 5 -1 11 6 10 12 -4 27
-9 10 -19 19 -22 19 -3 0 2 -8 11 -18z"/>
<path d="M865 380 c-3 -6 1 -7 9 -4 18 7 21 14 7 14 -6 0 -13 -4 -16 -10z"/>
<path d="M1175 360 c-3 -5 -1 -10 4 -10 6 0 11 5 11 10 0 6 -2 10 -4 10 -3 0
-8 -4 -11 -10z"/>
<path d="M1345 360 c-3 -6 1 -7 9 -4 18 7 21 14 7 14 -6 0 -13 -4 -16 -10z"/>
<path d="M1104 342 c4 -3 14 -7 22 -8 9 -1 13 0 10 4 -4 3 -14 7 -22 8 -9 1
-13 0 -10 -4z"/>
<path d="M1553 343 c4 -3 1 -13 -6 -22 -11 -14 -10 -14 5 -2 16 12 16 31 1 31
-4 0 -3 -3 0 -7z"/>
<path d="M1516 327 c3 -10 9 -15 12 -12 3 3 0 11 -7 18 -10 9 -11 8 -5 -6z"/>
<path d="M1031 327 c2 -1 13 -9 24 -17 19 -14 19 -14 6 3 -7 9 -18 17 -24 17
-6 0 -8 -1 -6 -3z"/>
<path d="M1156 322 c-3 -5 1 -9 9 -9 8 0 12 4 9 9 -3 4 -7 8 -9 8 -2 0 -6 -4
-9 -8z"/>
<path d="M1194 316 c1 -8 5 -18 8 -22 4 -3 5 1 4 10 -1 8 -5 18 -8 22 -4 3 -5
-1 -4 -10z"/>
<path d="M1319 328 c-5 -18 -6 -38 -1 -34 7 8 12 36 6 36 -2 0 -4 -1 -5 -2z"/>
<path d="M1670 320 c0 -5 5 -10 11 -10 5 0 7 5 4 10 -3 6 -8 10 -11 10 -2 0
-4 -4 -4 -10z"/>
<path d="M1960 326 c0 -2 8 -10 18 -17 15 -13 16 -12 3 4 -13 16 -21 21 -21
13z"/>
<path d="M2266 318 c3 -5 10 -6 15 -3 13 9 11 12 -6 12 -8 0 -12 -4 -9 -9z"/>
<path d="M1559 308 c-5 -18 -6 -38 -1 -34 7 8 12 36 6 36 -2 0 -4 -1 -5 -2z"/>
<path d="M1593 295 c0 -8 4 -12 9 -9 5 3 6 10 3 15 -9 13 -12 11 -12 -6z"/>
<path d="M1675 290 c-4 -6 -11 -7 -17 -4 -7 4 -8 2 -4 -5 6 -9 11 -9 22 0 14
11 18 19 10 19 -3 0 -8 -5 -11 -10z"/>
<path d="M2915 170 c-4 -6 -11 -7 -17 -4 -7 4 -8 2 -4 -5 6 -9 11 -9 22 0 14
11 18 19 10 19 -3 0 -8 -5 -11 -10z"/>
<path d="M2680 166 c0 -2 8 -10 18 -17 15 -13 16 -12 3 4 -13 16 -21 21 -21
13z"/>
<path d="M2719 113 c-13 -16 -12 -17 4 -4 16 13 21 21 13 21 -2 0 -10 -8 -17
-17z"/>
</g>
</svg>
